<svg xmlns="http://www.w3.org/2000/svg" version="1.1" xmlns:xlink="http://www.w3.org/1999/xlink" xmlns:svgjs="http://svgjs.dev/svgjs" width="128" height="128" viewBox="0 0 128 128"><g transform="matrix(0.8046875,0,0,0.8046875,12.221578125000008,1.9524738898026257)"><svg viewBox="0 0 78 95" data-background-color="#ffffff" preserveAspectRatio="xMidYMid meet" height="155" width="128" xmlns="http://www.w3.org/2000/svg" xmlns:xlink="http://www.w3.org/1999/xlink"><g id="tight-bounds" transform="matrix(1,0,0,1,0.2108437499999951,-0.24049999999999727)"><svg viewBox="0 0 77.5783125 95.481" height="95.481" width="77.5783125"><g><svg viewBox="0 0 77.5783125 95.481" height="95.481" width="77.5783125"><g><svg viewBox="0 0 77.5783125 95.481" height="95.481" width="77.5783125"><g id="textblocktransform"><svg viewBox="0 0 77.5783125 95.481" height="95.481" width="77.5783125" id="textblock"><g><svg viewBox="0 0 77.5783125 95.481" height="95.481" width="77.5783125"><g><svg viewBox="0 0 77.5783125 95.481" height="95.481" width="77.5783125"><g><svg xmlns="http://www.w3.org/2000/svg" data-name="Layer 1" viewBox="12 0 104 128" x="0" y="0" height="95.481" width="77.5783125" class="icon-icon-0" data-fill-palette-color="accent" id="icon-0"><path d="M112 8h-6V4a4 4 0 0 0-4-4H16a4 4 0 0 0-4 4V124a4 4 0 0 0 4 4h86a4 4 0 0 0 4-4v-4h6a4 4 0 0 0 4-4V12A4 4 0 0 0 112 8ZM20 101H16V95h4Zm0-10H16V85h4Zm0-10H16V75h4Zm0-10H16V65h4Zm0-10H16V55h4Zm0-10H16V45h4Zm0-10H16V35h4Zm0-10H16V25h4Zm4 85V105h4a2 2 0 0 0 0-4H24V95h4a2 2 0 0 0 0-4H24V85h4a2 2 0 0 0 0-4H24V75h4a2 2 0 0 0 0-4H24V65h4a2 2 0 0 0 0-4H24V55h4a2 2 0 0 0 0-4H24V45h4a2 2 0 0 0 0-4H24V35h4a2 2 0 0 0 0-4H24V25h4a2 2 0 0 0 0-4H24V12h88V116Z" fill="#f25f39" data-fill-palette-color="accent"></path><path d="M106 97H36a2 2 0 0 0 0 4h70a2 2 0 0 0 0-4Z" fill="#f25f39" data-fill-palette-color="accent"></path><path d="M106 27H36a2 2 0 0 0 0 4h70a2 2 0 0 0 0-4Z" fill="#f25f39" data-fill-palette-color="accent"></path><path d="M34 39a2 2 0 0 0 2 2H49.56a29.54 29.54 0 0 1 6.58-4H36A2 2 0 0 0 34 39Z" fill="#f25f39" data-fill-palette-color="accent"></path><path d="M106 37H79.87a29.54 29.54 0 0 1 6.58 4H106a2 2 0 0 0 0-4Z" fill="#f25f39" data-fill-palette-color="accent"></path><path d="M36 51h5.53a29.52 29.52 0 0 1 2.39-4H36a2 2 0 0 0 0 4Z" fill="#f25f39" data-fill-palette-color="accent"></path><path d="M106 47H92.09a29.52 29.52 0 0 1 2.39 4H106a2 2 0 0 0 0-4Z" fill="#f25f39" data-fill-palette-color="accent"></path><path d="M106 57H96.65a29.3 29.3 0 0 1 0.69 4H106a2 2 0 0 0 0-4Z" fill="#f25f39" data-fill-palette-color="accent"></path><path d="M36 61h2.65a29.3 29.3 0 0 1 0.69-4H36a2 2 0 0 0 0 4Z" fill="#f25f39" data-fill-palette-color="accent"></path><path d="M106 67H97.35a29.3 29.3 0 0 1-0.69 4H106a2 2 0 0 0 0-4Z" fill="#f25f39" data-fill-palette-color="accent"></path><path d="M36 71h3.35a29.3 29.3 0 0 1-0.69-4H36a2 2 0 0 0 0 4Z" fill="#f25f39" data-fill-palette-color="accent"></path><path d="M106 77H94.47a29.52 29.52 0 0 1-2.39 4H106a2 2 0 0 0 0-4Z" fill="#f25f39" data-fill-palette-color="accent"></path><path d="M36 81h7.91a29.52 29.52 0 0 1-2.39-4H36a2 2 0 0 0 0 4Z" fill="#f25f39" data-fill-palette-color="accent"></path><path d="M36 91H56.13a29.54 29.54 0 0 1-6.58-4H36a2 2 0 0 0 0 4Z" fill="#f25f39" data-fill-palette-color="accent"></path><path d="M106 87H86.44a29.54 29.54 0 0 1-6.58 4H106a2 2 0 0 0 0-4Z" fill="#f25f39" data-fill-palette-color="accent"></path><path d="M68 89.5A25.5 25.5 0 1 0 42.5 64 25.53 25.53 0 0 0 68 89.5ZM52.74 64.15a2 2 0 0 1 2.83 0l6.77 6.77L80.43 52.84a2 2 0 1 1 2.83 2.82l-19.5 19.5a2 2 0 0 1-2.83 0L52.74 67A2 2 0 0 1 52.74 64.15Z" fill="#f25f39" data-fill-palette-color="accent"></path></svg></g></svg></g></svg></g></svg></g></svg></g></svg></g><defs></defs></svg><rect width="77.5783125" height="95.481" fill="none" stroke="none" visibility="hidden"></rect></g></svg></g></svg>