<svg xmlns="http://www.w3.org/2000/svg" version="1.1" xmlns:xlink="http://www.w3.org/1999/xlink" xmlns:svgjs="http://svgjs.dev/svgjs" width="1000" height="381" viewBox="0 0 1000 381"><g transform="matrix(1,0,0,1,-0.6056352102422693,0.391992272226247)"><svg viewBox="0 0 396 151" data-background-color="#ffffff" preserveAspectRatio="xMidYMid meet" height="381" width="1000" xmlns="http://www.w3.org/2000/svg" xmlns:xlink="http://www.w3.org/1999/xlink"><g id="tight-bounds" transform="matrix(1,0,0,1,0.2398315432559457,-0.15535651733901545)"><svg viewBox="0 0 395.52 151.31071303467803" height="151.31071303467803" width="395.52"><g><svg viewBox="0 0 621.5382467958068 237.7765860158708" height="151.31071303467803" width="395.52"><g transform="matrix(1,0,0,1,226.01824679580687,61.53745219368775)"><svg viewBox="0 0 395.5199999999999 114.70168162849531" height="114.70168162849531" width="395.5199999999999"><g id="textblocktransform"><svg viewBox="0 0 395.5199999999999 114.70168162849531" height="114.70168162849531" width="395.5199999999999" id="textblock"><g><svg viewBox="0 0 395.5199999999999 71.26845023599112" height="71.26845023599112" width="395.5199999999999"><g transform="matrix(1,0,0,1,0,0)"><svg width="395.5199999999999" viewBox="1.809999942779541 -38.7400016784668 271.7546362876892 48.970001220703125" height="71.26845023599112" data-palette-color="#000000"><g transform="matrix(1,0,0,1,0,0)"><g><svg width="16.164563950643785" viewBox="1.190000057220459 -36.36000061035156 102.79999542236328 36.36000061035156" height="5.717621238500599" data-palette-color="#000000" id="scriptelement" x="254.05228677230372" y="-30.168742374316217"><path d="M18.55-28.05L9.43 0 1.19 0 13.74-36.36 23.65-36.36 36.19 0 27.95 0 18.84-28.05 18.55-28.05ZM8.91-8.29L8.91-14.29 28.37-14.29 28.37-8.29 8.91-8.29ZM48.24 0L40.55 0 40.55-36.36 54.9-36.36Q59.02-36.36 61.94-34.9 64.86-33.43 66.39-30.76 67.93-28.09 67.93-24.49L67.93-24.49Q67.93-20.86 66.37-18.26 64.81-15.66 61.85-14.28 58.89-12.89 54.7-12.89L54.7-12.89 45.1-12.89 45.1-19.07 53.46-19.07Q55.66-19.07 57.12-19.67 58.57-20.28 59.29-21.48 60.01-22.69 60.01-24.49L60.01-24.49Q60.01-26.3 59.29-27.54 58.57-28.78 57.11-29.43 55.64-30.08 53.42-30.08L53.42-30.08 48.24-30.08 48.24 0ZM51.9-16.55L60.19-16.55 69.23 0 60.74 0 51.9-16.55ZM81.05 0L73.36 0 73.36-36.36 81.05-36.36 81.05-20.33 81.53-20.33 94.62-36.36 103.83-36.36 90.34-20.08 103.99 0 94.79 0 84.83-14.95 81.05-10.33 81.05 0Z" opacity="1" transform="matrix(1,0,0,1,0,0)" fill="#000000" class="undefined-123" id="p-123"></path></svg></g></g><path d="M250.704-27.31C250.704-33.623 255.822-38.74 262.135-38.74 268.447-38.74 273.565-33.623 273.565-27.31 273.565-20.997 268.447-15.88 262.135-15.88 255.822-15.88 250.704-20.997 250.704-27.31ZM262.135-16.28C268.226-16.28 273.165-21.218 273.165-27.31 273.165-33.402 268.226-38.34 262.135-38.34 256.043-38.34 251.104-33.402 251.104-27.31 251.104-21.218 256.043-16.28 262.135-16.28Z" fill="#000000" id="scriptcircle" data-fill-palette-color="primary"></path><path d="M29.24-27.27L29.24 10.23 20.56 10.23 20.56-4.42 20.38-4.42Q19.83-3.16 18.82-2.06 17.81-0.96 16.29-0.28 14.77 0.39 12.71 0.39L12.71 0.39Q9.69 0.39 7.23-1.17 4.76-2.73 3.28-5.86 1.81-8.98 1.81-13.62L1.81-13.62Q1.81-18.43 3.34-21.54 4.87-24.64 7.34-26.14 9.82-27.63 12.68-27.63L12.68-27.63Q14.83-27.63 16.35-26.89 17.88-26.15 18.87-25 19.87-23.85 20.38-22.6L20.38-22.6 20.65-22.6 20.65-27.27 29.24-27.27ZM20.76-13.64L20.76-13.64Q20.76-15.87 20.16-17.49 19.57-19.11 18.44-19.98 17.31-20.85 15.73-20.85L15.73-20.85Q14.12-20.85 13-19.96 11.88-19.07 11.3-17.45 10.72-15.84 10.72-13.64L10.72-13.64Q10.72-11.43 11.31-9.8 11.9-8.17 13.01-7.27 14.12-6.37 15.73-6.37L15.73-6.37Q17.31-6.37 18.43-7.27 19.55-8.17 20.15-9.8 20.76-11.43 20.76-13.64ZM52.34-11.77L52.34-11.77 52.34-27.27 61.01-27.27 61.01 0 52.73 0 52.73-5.08 52.45-5.08Q51.54-2.57 49.37-1.11 47.19 0.36 44.12 0.36L44.12 0.36Q41.33 0.36 39.22-0.92 37.11-2.2 35.94-4.5 34.76-6.8 34.75-9.89L34.75-9.89 34.75-27.27 43.43-27.27 43.43-11.59Q43.45-9.38 44.6-8.1 45.75-6.82 47.74-6.82L47.74-6.82Q49.04-6.82 50.08-7.4 51.12-7.97 51.73-9.08 52.34-10.19 52.34-11.77ZM75.21 0L66.53 0 66.53-27.27 75.21-27.27 75.21 0ZM70.89-30.45L70.89-30.45Q69.05-30.45 67.73-31.67 66.42-32.88 66.42-34.61L66.42-34.61Q66.42-36.31 67.73-37.53 69.05-38.74 70.88-38.74L70.88-38.74Q72.72-38.74 74.03-37.53 75.33-36.31 75.33-34.61L75.33-34.61Q75.33-32.88 74.03-31.67 72.72-30.45 70.89-30.45ZM93.44 0.51L93.44 0.51Q89.13 0.51 86.05-1.26 82.96-3.04 81.31-6.21 79.66-9.38 79.66-13.55L79.66-13.55Q79.66-17.74 81.32-20.91 82.98-24.08 86.06-25.85 89.14-27.63 93.42-27.63L93.42-27.63Q97.2-27.63 100.02-26.26 102.83-24.89 104.42-22.4 106.01-19.9 106.1-16.55L106.1-16.55 97.99-16.55Q97.74-18.64 96.57-19.83 95.41-21.02 93.55-21.02L93.55-21.02Q92.04-21.02 90.9-20.18 89.77-19.34 89.13-17.69 88.5-16.05 88.5-13.64L88.5-13.64Q88.5-11.22 89.13-9.56 89.77-7.9 90.9-7.06 92.04-6.21 93.55-6.21L93.55-6.21Q94.75-6.21 95.69-6.73 96.62-7.24 97.22-8.25 97.83-9.25 97.99-10.69L97.99-10.69 106.1-10.69Q105.98-7.32 104.42-4.79 102.87-2.27 100.07-0.88 97.28 0.51 93.44 0.51ZM123.45-13.28L118.38-7.16 118.42-17.51 119.63-17.51 127.3-27.27 137.13-27.27 125.74-13.28 123.45-13.28ZM119.24 0L110.55 0 110.55-36.36 119.24-36.36 119.24 0ZM137.53 0L127.49 0 120.36-11.33 126.07-17.49 137.53 0ZM168.33-25.46L159.91-25.46Q159.74-27.41 158.34-28.51 156.95-29.6 154.37-29.6L154.37-29.6Q152.67-29.6 151.53-29.15 150.4-28.71 149.83-27.94 149.26-27.17 149.24-26.17L149.24-26.17Q149.21-25.36 149.57-24.73 149.93-24.11 150.64-23.64 151.34-23.17 152.33-22.82 153.33-22.46 154.57-22.19L154.57-22.19 157.69-21.48Q160.39-20.9 162.46-19.92 164.53-18.95 165.94-17.6 167.35-16.25 168.08-14.49 168.81-12.73 168.83-10.55L168.83-10.55Q168.81-7.1 167.09-4.63 165.36-2.17 162.14-0.85 158.92 0.46 154.37 0.46L154.37 0.46Q149.81 0.46 146.42-0.91 143.03-2.27 141.15-5.06 139.26-7.85 139.21-12.11L139.21-12.11 147.63-12.11Q147.73-10.35 148.57-9.18 149.4-8.01 150.87-7.4 152.33-6.8 154.27-6.8L154.27-6.8Q156.04-6.8 157.29-7.28 158.55-7.76 159.22-8.61 159.9-9.46 159.91-10.56L159.91-10.56Q159.9-11.59 159.27-12.33 158.65-13.07 157.36-13.61 156.08-14.15 154.09-14.61L154.09-14.61 150.29-15.5Q145.57-16.58 142.85-19.01 140.13-21.43 140.15-25.57L140.15-25.57Q140.13-28.94 141.96-31.48 143.79-34.02 147.02-35.44 150.25-36.86 154.39-36.86L154.39-36.86Q158.62-36.86 161.73-35.43 164.85-34 166.57-31.43 168.29-28.85 168.33-25.46L168.33-25.46ZM190.88-11.77L190.88-11.77 190.88-27.27 199.54-27.27 199.54 0 191.27 0 191.27-5.08 190.98-5.08Q190.08-2.57 187.9-1.11 185.73 0.36 182.66 0.36L182.66 0.36Q179.87 0.36 177.75-0.92 175.64-2.2 174.47-4.5 173.3-6.8 173.28-9.89L173.28-9.89 173.28-27.27 181.96-27.27 181.96-11.59Q181.98-9.38 183.13-8.1 184.29-6.82 186.28-6.82L186.28-6.82Q187.57-6.82 188.61-7.4 189.65-7.97 190.26-9.08 190.88-10.19 190.88-11.77ZM213.74 0L205.06 0 205.06-27.27 213.32-27.27 213.32-22.27 213.62-22.27Q214.47-24.75 216.5-26.19 218.52-27.63 221.32-27.63L221.32-27.63Q224.17-27.63 226.19-26.17 228.21-24.72 228.76-22.27L228.76-22.27 229.05-22.27Q229.81-24.7 232.03-26.16 234.25-27.63 237.27-27.63L237.27-27.63Q241.14-27.63 243.55-25.15 245.97-22.67 245.97-18.36L245.97-18.36 245.97 0 237.29 0 237.29-16.37Q237.29-18.41 236.24-19.49 235.19-20.56 233.52-20.56L233.52-20.56Q231.73-20.56 230.71-19.4 229.69-18.24 229.69-16.28L229.69-16.28 229.69 0 221.34 0 221.34-16.46Q221.34-18.36 220.31-19.46 219.28-20.56 217.6-20.56L217.6-20.56Q216.46-20.56 215.59-20.02 214.72-19.48 214.23-18.48 213.74-17.49 213.74-16.14L213.74-16.14 213.74 0Z" opacity="1" transform="matrix(1,0,0,1,0,0)" fill="#000000" class="undefined-text-0" data-fill-palette-color="primary" id="text-0"></path></svg></g></svg></g><g transform="matrix(1,0,0,1,0,88.09322089390297)"><svg viewBox="0 0 350.48811962990175 26.608460734592345" height="26.608460734592345" width="350.48811962990175"><g transform="matrix(1,0,0,1,0,0)"><svg width="350.48811962990175" viewBox="2.0999999046325684 -37.75 570.280029296875 43.29999923706055" height="26.608460734592345" data-palette-color="#f98e54"><path d="M27.2-19.05Q26.85-13.95 25.2-10.18 23.55-6.4 21.23-3.85 18.9-1.3 16.23-0.05 13.55 1.2 11.15 1.2L11.15 1.2Q9.3 1.2 7.63 0.4 5.95-0.4 4.73-2.02 3.5-3.65 2.8-6.1 2.1-8.55 2.1-11.85L2.1-11.85Q2.1-18.3 3.95-23.1 5.8-27.9 8.63-31.1 11.45-34.3 14.68-35.85 17.9-37.4 20.7-37.4L20.7-37.4Q22.7-37.4 24.18-36.7 25.65-36 26.6-34.83 27.55-33.65 27.98-32.08 28.4-30.5 28.4-28.75L28.4-28.75 21.55-27.45Q21.1-29.45 20.35-30.3 19.6-31.15 18.65-31.15L18.65-31.15Q17.4-31.15 15.9-29.38 14.4-27.6 13.1-24.8 11.8-22 10.9-18.65 10-15.3 9.9-12.05L9.9-12.05Q9.9-8.95 10.83-7.63 11.75-6.3 13.2-6.3L13.2-6.3Q14.2-6.3 15.28-6.8 16.35-7.3 17.2-8.22 18.05-9.15 18.63-10.38 19.2-11.6 19.25-13.05L19.25-13.05 13.9-12.25 14.85-17.2Q17.2-17.5 19.45-17.8L19.45-17.8Q21.35-18.05 23.48-18.4 25.6-18.75 27.2-19.05L27.2-19.05ZM41.5-2.45L25.35 0.05 31.9-35.5 47.7-36.85Q47.35-35.75 47.1-34.6L47.1-34.6Q46.85-33.65 46.62-32.63 46.4-31.6 46.25-30.8L46.25-30.8Q45.75-30.75 44.82-30.73 43.9-30.7 42.85-30.68 41.8-30.65 40.72-30.65 39.65-30.65 38.85-30.65L38.85-30.65 37.1-21.7Q38.65-21.8 40-21.85L40-21.85Q41.1-21.9 42.25-21.9 43.4-21.9 43.95-21.95L43.95-21.95Q43.75-20.55 43.57-19.2 43.4-17.85 43.15-16.45L43.15-16.45Q42.65-16.4 41.52-16.38 40.4-16.35 39.25-16.3L39.25-16.3Q37.95-16.25 36.4-16.2L36.4-16.2 34.7-7 42-8.15 41.5-2.45ZM55.5-1.35L46.5 0.05Q47.65-5.45 48.7-10.8L48.7-10.8Q49.15-13.05 49.6-15.5 50.05-17.95 50.47-20.33 50.9-22.7 51.22-24.93 51.55-27.15 51.8-29L51.8-29Q50.65-29.15 49.47-29.1 48.3-29.05 47.15-29.4L47.15-29.4Q47.2-30.2 47.2-31.25 47.2-32.3 47.25-33.35L47.25-33.35Q47.3-34.5 47.35-35.8L47.35-35.8Q48.65-35.7 49.95-35.65 51.25-35.6 52.55-35.6L52.55-35.6Q55.1-35.6 57.47-35.73 59.85-35.85 61.87-36.02 63.9-36.2 65.84-36.45L65.84-36.45 65.3-33.75Q65.05-32.6 64.82-31.4 64.59-30.2 64.4-29.35L64.4-29.35Q63.3-29.05 62.17-28.93 61.05-28.8 59.95-28.6L59.95-28.6Q59.6-26.9 59.2-24.83 58.8-22.75 58.42-20.53 58.05-18.3 57.7-16 57.35-13.7 57-11.6L57-11.6Q56.2-6.65 55.5-1.35L55.5-1.35ZM83.34-1.35L74.34 0.05Q75.49-5.45 76.54-10.8L76.54-10.8Q76.99-13.05 77.44-15.5 77.89-17.95 78.31-20.33 78.74-22.7 79.06-24.93 79.39-27.15 79.64-29L79.64-29Q78.49-29.15 77.31-29.1 76.14-29.05 74.99-29.4L74.99-29.4Q75.04-30.2 75.04-31.25 75.04-32.3 75.09-33.35L75.09-33.35Q75.14-34.5 75.19-35.8L75.19-35.8Q76.49-35.7 77.79-35.65 79.09-35.6 80.39-35.6L80.39-35.6Q82.94-35.6 85.31-35.73 87.69-35.85 89.72-36.02 91.74-36.2 93.69-36.45L93.69-36.45 93.14-33.75Q92.89-32.6 92.67-31.4 92.44-30.2 92.24-29.35L92.24-29.35Q91.14-29.05 90.02-28.93 88.89-28.8 87.79-28.6L87.79-28.6Q87.44-26.9 87.04-24.83 86.64-22.75 86.27-20.53 85.89-18.3 85.54-16 85.19-13.7 84.84-11.6L84.84-11.6Q84.04-6.65 83.34-1.35L83.34-1.35ZM96.04-1.5L88.34 0.1Q89.74-6.9 91.04-13.55L91.04-13.55Q91.54-16.4 92.09-19.48 92.64-22.55 93.11-25.55 93.59-28.55 94.01-31.38 94.44-34.2 94.69-36.5L94.69-36.5Q95.84-36.45 96.81-36.38 97.79-36.3 98.74-36.25 99.69-36.2 100.66-36.18 101.64-36.15 102.79-36.15L102.79-36.15Q101.94-32.6 101.11-29.05 100.29-25.5 99.59-21.9L99.59-21.9 104.54-22.45Q105.24-26 105.79-29.33 106.34-32.65 107.24-36.2L107.24-36.2Q108.39-36.4 109.79-36.52 111.19-36.65 112.39-36.75 113.59-36.85 114.41-36.93 115.24-37 115.24-37L115.24-37Q114.54-34.75 113.91-32.08 113.29-29.4 112.69-26.53 112.09-23.65 111.54-20.7 110.99-17.75 110.54-15.1L110.54-15.1Q109.44-8.75 108.49-2.1L108.49-2.1 100.69-1.2Q101.34-4.2 101.84-7.05L101.84-7.05Q102.34-9.45 102.86-12.05 103.39-14.65 103.69-16.5L103.69-16.5 98.84-16.05Q98.49-14.15 98.01-11.65 97.54-9.15 97.14-6.9L97.14-6.9Q96.59-4.2 96.04-1.5L96.04-1.5ZM126.53-2.45L110.39 0.05 116.94-35.5 132.74-36.85Q132.38-35.75 132.13-34.6L132.13-34.6Q131.88-33.65 131.66-32.63 131.44-31.6 131.28-30.8L131.28-30.8Q130.78-30.75 129.86-30.73 128.94-30.7 127.89-30.68 126.84-30.65 125.76-30.65 124.69-30.65 123.89-30.65L123.89-30.65 122.14-21.7Q123.69-21.8 125.03-21.85L125.03-21.85Q126.14-21.9 127.28-21.9 128.44-21.9 128.99-21.95L128.99-21.95Q128.78-20.55 128.61-19.2 128.44-17.85 128.19-16.45L128.19-16.45Q127.69-16.4 126.56-16.38 125.44-16.35 124.28-16.3L124.28-16.3Q122.98-16.25 121.44-16.2L121.44-16.2 119.73-7 127.03-8.15 126.53-2.45ZM158.93-12.35Q158.93-9.55 157.86-7.28 156.78-5 154.96-3.35 153.13-1.7 150.66-0.8 148.18 0.1 145.33 0.1L145.33 0.1Q143.33 0.1 141.33-0.98 139.33-2.05 137.48-4.4L137.48-4.4 141.18-11.65Q141.53-11 142.23-10.33 142.93-9.65 143.81-9.15 144.68-8.65 145.56-8.33 146.43-8 147.13-8L147.13-8Q147.73-8 148.38-8.2 149.03-8.4 149.58-8.8 150.13-9.2 150.46-9.73 150.78-10.25 150.78-10.95L150.78-10.95Q150.78-12.15 150-13.18 149.23-14.2 148.08-15.13 146.93-16.05 145.58-17 144.23-17.95 143.1-19 141.98-20.05 141.18-21.35 140.38-22.65 140.38-24.25L140.38-24.25Q140.38-26.85 141.93-29.1 143.48-31.35 145.81-32.98 148.13-34.6 150.88-35.55 153.63-36.5 156.08-36.5L156.08-36.5Q157.43-36.5 158.63-36.18 159.83-35.85 160.71-35.13 161.58-34.4 162.11-33.3 162.63-32.2 162.63-30.55L162.63-30.55Q162.63-29.85 162.5-29.15 162.38-28.45 162.28-27.65L162.28-27.65 155.03-25.55Q155.13-25.95 155.21-26.35 155.28-26.75 155.28-27.15L155.28-27.15Q155.28-28.65 154.75-29.33 154.23-30 153.38-30L153.38-30Q152.98-30 152.41-29.7 151.83-29.4 151.25-28.93 150.68-28.45 150.28-27.8 149.88-27.15 149.88-26.4L149.88-26.4Q149.88-25.2 150.56-24.4 151.23-23.6 152.23-22.9 153.23-22.2 154.41-21.48 155.58-20.75 156.58-19.6 157.58-18.45 158.25-16.73 158.93-15 158.93-12.35L158.93-12.35ZM179.08-9.75Q178.38-6.9 177.1-4.9 175.83-2.9 174.1-1.6 172.38-0.3 170.43 0.3 168.48 0.9 166.53 0.9L166.53 0.9Q165.38 0.9 164.18 0.53 162.98 0.15 162.03-0.6 161.08-1.35 160.45-2.5 159.83-3.65 159.83-5.2L159.83-5.2Q159.83-5.4 159.83-5.6 159.83-5.8 159.88-6L159.88-6Q160.08-8.05 160.53-10.95 160.98-13.85 161.48-17 161.98-20.15 162.58-23.33 163.18-26.5 163.65-29.1 164.13-31.7 164.48-33.43 164.83-35.15 164.93-35.55L164.93-35.55Q165.98-35.65 167.43-35.8 168.88-35.95 170.13-36.05L170.13-36.05Q171.68-36.2 173.18-36.35L173.18-36.35Q171.88-30.3 170.88-25.4L170.88-25.4Q170.43-23.3 170-21.2 169.58-19.1 169.2-17.35 168.83-15.6 168.55-14.33 168.28-13.05 168.1-12.25 167.93-11.45 167.7-10.23 167.48-9 167.48-8L167.48-8Q167.48-7.2 167.88-6.68 168.28-6.15 168.88-6.15L168.88-6.15Q169.73-6.15 170.28-6.83 170.83-7.5 171.2-8.45 171.58-9.4 171.75-10.38 171.93-11.35 172.08-11.9L172.08-11.9Q172.38-13.35 172.75-15.13 173.13-16.9 173.5-18.82 173.88-20.75 174.25-22.75 174.63-24.75 174.98-26.65L174.98-26.65Q175.83-31.05 176.63-35.75L176.63-35.75 184.23-36.25Q184.23-36.25 183.98-34.95 183.73-33.65 183.33-31.5 182.93-29.35 182.45-26.6 181.98-23.85 181.38-20.88 180.78-17.9 180.2-15.03 179.63-12.15 179.08-9.75L179.08-9.75ZM185.98-0.85L177.73-0.3Q179.93-6.95 181.93-13.35L181.93-13.35Q182.78-16.05 183.68-19 184.58-21.95 185.48-24.85 186.38-27.75 187.15-30.45 187.93-33.15 188.53-35.45L188.53-35.45Q191.28-35.45 193.73-35.75 196.18-36.05 199.03-36.3L199.03-36.3Q198.88-35.2 198.7-33.83 198.53-32.45 198.3-30.95 198.08-29.45 197.83-27.85 197.58-26.25 197.23-23.75 196.88-21.25 196.28-17.5L196.28-17.5 196.93-17.5Q198.38-21.3 199.33-23.83 200.28-26.35 200.88-27.95 201.48-29.55 202.1-31.08 202.73-32.6 203.3-33.98 203.88-35.35 204.38-36.4L204.38-36.4Q205.63-36.5 206.73-36.65 207.83-36.8 208.93-36.98 210.03-37.15 211.15-37.33 212.28-37.5 213.63-37.75L213.63-37.75Q213.13-34.85 212.68-31.8 212.23-28.75 211.88-25.73 211.53-22.7 211.2-19.75 210.88-16.8 210.63-14.15L210.63-14.15Q210.03-7.95 209.58-2.05L209.58-2.05 200.88-0.5Q200.88-0.75 200.95-1.85 201.03-2.95 201.15-4.55 201.28-6.15 201.5-8.1 201.73-10.05 201.95-12 202.18-13.95 202.43-15.78 202.68-17.6 202.93-18.9L202.93-18.9 202.48-18.9Q201.78-16.8 200.93-14.48 200.08-12.15 199.2-9.75 198.33-7.35 197.48-5.05 196.63-2.75 195.98-0.65L195.98-0.65Q194.23-0.6 192.98-0.53 191.73-0.45 190.08-0.35L190.08-0.35 191.68-18.9 190.93-18.9Q190.83-18.25 190.43-16.73 190.03-15.2 189.5-13.23 188.98-11.25 188.38-9.13 187.78-7 187.25-5.18 186.73-3.35 186.38-2.18 186.03-1 185.98-0.85L185.98-0.85ZM216.92-0.85L208.67-0.3Q210.87-6.95 212.87-13.35L212.87-13.35Q213.72-16.05 214.62-19 215.52-21.95 216.42-24.85 217.32-27.75 218.1-30.45 218.87-33.15 219.47-35.45L219.47-35.45Q222.22-35.45 224.67-35.75 227.12-36.05 229.97-36.3L229.97-36.3Q229.82-35.2 229.65-33.83 229.47-32.45 229.25-30.95 229.02-29.45 228.77-27.85 228.52-26.25 228.17-23.75 227.82-21.25 227.22-17.5L227.22-17.5 227.87-17.5Q229.32-21.3 230.27-23.83 231.22-26.35 231.82-27.95 232.42-29.55 233.05-31.08 233.67-32.6 234.25-33.98 234.82-35.35 235.32-36.4L235.32-36.4Q236.57-36.5 237.67-36.65 238.77-36.8 239.87-36.98 240.97-37.15 242.1-37.33 243.22-37.5 244.57-37.75L244.57-37.75Q244.07-34.85 243.62-31.8 243.17-28.75 242.82-25.73 242.47-22.7 242.15-19.75 241.82-16.8 241.57-14.15L241.57-14.15Q240.97-7.95 240.52-2.05L240.52-2.05 231.82-0.5Q231.82-0.75 231.9-1.85 231.97-2.95 232.1-4.55 232.22-6.15 232.45-8.1 232.67-10.05 232.9-12 233.12-13.95 233.37-15.78 233.62-17.6 233.87-18.9L233.87-18.9 233.42-18.9Q232.72-16.8 231.87-14.48 231.02-12.15 230.15-9.75 229.27-7.35 228.42-5.05 227.57-2.75 226.92-0.65L226.92-0.65Q225.17-0.6 223.92-0.53 222.67-0.45 221.02-0.35L221.02-0.35 222.62-18.9 221.87-18.9Q221.77-18.25 221.37-16.73 220.97-15.2 220.45-13.23 219.92-11.25 219.32-9.13 218.72-7 218.2-5.18 217.67-3.35 217.32-2.18 216.97-1 216.92-0.85L216.92-0.85ZM259.52-1Q258.27-0.8 256.77-0.55 255.27-0.3 254.07-0.1L254.07-0.1Q254.27-1.75 254.47-3.35L254.47-3.35Q254.62-4.75 254.75-6.15 254.87-7.55 254.97-8.55L254.97-8.55 250.62-8.55 248.62-1.35Q247.52-1.2 246.02-1.03 244.52-0.85 243.22-0.7L243.22-0.7Q241.62-0.5 240.07-0.3L240.07-0.3Q242.07-6.95 244.02-13.4L244.02-13.4Q244.82-16.1 245.69-19.05 246.57-22 247.44-24.93 248.32-27.85 249.12-30.55 249.92-33.25 250.52-35.5L250.52-35.5Q253.92-35.75 257.44-36.1 260.97-36.45 264.32-37.05L264.32-37.05Q264.17-35.45 264-33.08 263.82-30.7 263.67-27.9 263.52-25.1 263.37-22.05 263.22-19 263.07-16.05L263.07-16.05Q262.82-9.15 262.52-1.4L262.52-1.4Q261.02-1.15 259.52-1L259.52-1ZM254.92-26.1L251.82-13.55Q252.02-13.55 252.55-13.58 253.07-13.6 253.65-13.63 254.22-13.65 254.72-13.68 255.22-13.7 255.42-13.75L255.42-13.75Q255.42-14.05 255.5-14.78 255.57-15.5 255.65-16.43 255.72-17.35 255.82-18.45 255.92-19.55 256.02-20.6L256.02-20.6Q256.22-23.15 256.52-26.1L256.52-26.1 256.82-30.45 256.07-30.4 254.92-26.1ZM271.07-2.05L262.97 0.05Q264.32-6.6 265.57-12.95L265.57-12.95Q266.02-15.65 266.57-18.57 267.12-21.5 267.59-24.38 268.07-27.25 268.49-29.93 268.92-32.6 269.17-34.8L269.17-34.8Q272.02-35.7 275.32-36.13 278.62-36.55 281.87-36.55L281.87-36.55Q283.82-36.55 285.09-36.1 286.37-35.65 287.09-34.83 287.82-34 288.12-32.9 288.42-31.8 288.42-30.45L288.42-30.45Q288.42-28.45 287.72-26.53 287.02-24.6 285.84-22.88 284.67-21.15 283.14-19.73 281.62-18.3 279.87-17.4L279.87-17.4Q280.77-15.4 281.79-13.03 282.82-10.65 283.72-8.5L283.72-8.5Q284.72-6 285.77-3.5L285.77-3.5 278.02-0.8Q277.02-4 276.22-6.8L276.22-6.8Q275.87-7.95 275.52-9.18 275.17-10.4 274.87-11.5 274.57-12.6 274.37-13.48 274.17-14.35 274.12-14.9L274.12-14.9 273.47-14.7Q273.17-13.1 272.74-10.95 272.32-8.8 271.97-6.8L271.97-6.8Q271.52-4.45 271.07-2.05L271.07-2.05ZM276.32-29.6L274.72-21.65Q275.67-21.75 277.04-22.45 278.42-23.15 279.67-24.13 280.92-25.1 281.82-26.15 282.72-27.2 282.72-28L282.72-28Q282.72-28.55 282.37-28.88 282.02-29.2 281.39-29.38 280.77-29.55 280.02-29.6 279.27-29.65 278.47-29.65L278.47-29.65Q277.92-29.65 277.34-29.63 276.77-29.6 276.32-29.6L276.32-29.6ZM297.36-1.8L288.81-0.75 291.11-10.8Q291.11-12.95 291.04-15.48 290.96-18 290.81-20.55 290.66-23.1 290.51-25.48 290.36-27.85 290.26-29.68 290.16-31.5 290.06-32.6 289.96-33.7 289.96-33.7L289.96-33.7 298.11-36.8 298.11-30.7Q298.11-29.45 298.11-28.15 298.11-26.85 298.09-25.6 298.06-24.35 298.06-23.25 298.06-22.15 298.06-21.4L298.06-21.4Q298.71-23.1 299.64-25.6 300.56-28.1 301.36-30.45L301.36-30.45Q302.31-33.2 303.31-36.25L303.31-36.25 311.06-34.5Q308.91-30.2 306.86-25.95L306.86-25.95Q306.01-24.1 305.06-22.13 304.11-20.15 303.16-18.18 302.21-16.2 301.31-14.35 300.41-12.5 299.66-10.9L299.66-10.9Q299.41-9.6 299.04-8.05 298.66-6.5 298.31-5.1L298.31-5.1Q297.86-3.45 297.36-1.8L297.36-1.8ZM310.31 5.55L302.46 5.55Q302.86 3.55 303.31 1.48 303.76-0.6 304.16-2.53 304.56-4.45 304.89-6.1 305.21-7.75 305.36-9L305.36-9Q305.76-9 306.64-8.97 307.51-8.95 307.96-8.95L307.96-8.95Q308.66-8.95 309.79-8.95 310.91-8.95 312.04-9 313.16-9.05 314.41-9.1L314.41-9.1Q314.01-7.25 313.34-4.73 312.66-2.2 311.91 0.3 311.16 2.8 310.31 5.55L310.31 5.55ZM345.91-12.35Q345.91-9.55 344.83-7.28 343.76-5 341.93-3.35 340.11-1.7 337.63-0.8 335.16 0.1 332.31 0.1L332.31 0.1Q330.31 0.1 328.31-0.98 326.31-2.05 324.46-4.4L324.46-4.4 328.16-11.65Q328.51-11 329.21-10.33 329.91-9.65 330.78-9.15 331.66-8.65 332.53-8.33 333.41-8 334.11-8L334.11-8Q334.71-8 335.36-8.2 336.01-8.4 336.56-8.8 337.11-9.2 337.43-9.73 337.76-10.25 337.76-10.95L337.76-10.95Q337.76-12.15 336.98-13.18 336.21-14.2 335.06-15.13 333.91-16.05 332.56-17 331.21-17.95 330.08-19 328.96-20.05 328.16-21.35 327.36-22.65 327.36-24.25L327.36-24.25Q327.36-26.85 328.91-29.1 330.46-31.35 332.78-32.98 335.11-34.6 337.86-35.55 340.61-36.5 343.06-36.5L343.06-36.5Q344.41-36.5 345.61-36.18 346.81-35.85 347.68-35.13 348.56-34.4 349.08-33.3 349.61-32.2 349.61-30.55L349.61-30.55Q349.61-29.85 349.48-29.15 349.36-28.45 349.26-27.65L349.26-27.65 342.01-25.55Q342.11-25.95 342.18-26.35 342.26-26.75 342.26-27.15L342.26-27.15Q342.26-28.65 341.73-29.33 341.21-30 340.36-30L340.36-30Q339.96-30 339.38-29.7 338.81-29.4 338.23-28.93 337.66-28.45 337.26-27.8 336.86-27.15 336.86-26.4L336.86-26.4Q336.86-25.2 337.53-24.4 338.21-23.6 339.21-22.9 340.21-22.2 341.38-21.48 342.56-20.75 343.56-19.6 344.56-18.45 345.23-16.73 345.91-15 345.91-12.35L345.91-12.35ZM353.7-1.15L345.61 0.05Q347.11-6.95 348.4-13.55L348.4-13.55Q348.9-16.4 349.45-19.45 350-22.5 350.48-25.5 350.95-28.5 351.33-31.33 351.7-34.15 351.9-36.45L351.9-36.45Q353.06-36.35 354.5-36.27 355.95-36.2 357.2-36.1L357.2-36.1Q358.7-36 360.2-36L360.2-36Q360.15-35.8 360.06-35.25 359.95-34.7 359.81-33.93 359.65-33.15 359.48-32.2 359.31-31.25 359.11-30.3L359.11-30.3Q358.7-28.1 358.2-25.35L358.2-25.35 358.5-25.4Q359-26.2 359.93-27.63 360.86-29.05 361.86-30.65 362.86-32.25 363.81-33.73 364.75-35.2 365.4-36.25L365.4-36.25Q367.9-36.45 370.4-36.7 372.9-36.95 375.4-37.35L375.4-37.35Q373.06-34.2 370.86-31.15L370.86-31.15Q369.9-29.85 368.93-28.45 367.95-27.05 367-25.7 366.06-24.35 365.23-23.1 364.4-21.85 363.75-20.8L363.75-20.8Q364.86-15.75 366.36-11.05 367.86-6.35 369.4-1.45L369.4-1.45Q368.25-1.5 367.06-1.53 365.86-1.55 364.7-1.55L364.7-1.55Q363.25-1.55 361.9-1.53 360.56-1.5 359.11-1.45L359.11-1.45Q358.65-4.7 358.13-8.28 357.61-11.85 357.15-15.1L357.15-15.1 356.25-14.05Q355.9-12.55 355.48-10.35 355.06-8.15 354.65-6.1L354.65-6.1Q354.2-3.7 353.7-1.15L353.7-1.15ZM376.85-1Q376.4-1 375.08-0.88 373.75-0.75 372.35-0.58 370.95-0.4 369.83-0.25 368.7-0.1 368.6-0.05L368.6-0.05Q369.1-2.2 369.63-4.83 370.15-7.45 370.7-10.33 371.25-13.2 371.75-16.15 372.25-19.1 372.7-21.85L372.7-21.85Q373.75-28.25 374.8-35L374.8-35 382.6-36.25Q381.45-29.55 380.35-23.1L380.35-23.1Q379.9-20.35 379.43-17.4 378.95-14.45 378.48-11.55 378-8.65 377.6-5.93 377.2-3.2 376.85-1L376.85-1ZM386.95-1.65L378.3 0.05Q379.8-6.7 381.15-13.15L381.15-13.15Q381.7-15.85 382.3-18.85 382.9-21.85 383.45-24.75 384-27.65 384.5-30.35 385-33.05 385.35-35.3L385.35-35.3Q386.8-35.75 388.2-36.08 389.6-36.4 391.08-36.65 392.55-36.9 393.85-36.9L393.85-36.9Q396.1-36.9 397.63-36.15 399.15-35.4 400.1-34.13 401.05-32.85 401.45-31.15 401.85-29.45 401.85-27.5L401.85-27.5Q401.85-24.7 400.83-22.1 399.8-19.5 398.08-17.48 396.35-15.45 394.13-14.25 391.9-13.05 389.5-13.05L389.5-13.05 388.95-13.05Q388.55-11.35 388.2-9.35 387.85-7.35 387.6-5.65L387.6-5.65Q387.25-3.65 386.95-1.65L386.95-1.65ZM392.25-30.85Q391.7-27.55 391.15-24.6 390.6-21.65 389.95-18.3L389.95-18.3Q390.75-18.5 391.63-19.23 392.5-19.95 393.25-21.13 394-22.3 394.45-23.85 394.9-25.4 394.9-27.1L394.9-27.1Q394.9-28.95 394.08-29.9 393.25-30.85 392.25-30.85L392.25-30.85ZM420.65-1.35L411.65 0.05Q412.8-5.45 413.85-10.8L413.85-10.8Q414.3-13.05 414.75-15.5 415.2-17.95 415.62-20.33 416.05-22.7 416.37-24.93 416.7-27.15 416.95-29L416.95-29Q415.8-29.15 414.62-29.1 413.45-29.05 412.3-29.4L412.3-29.4Q412.35-30.2 412.35-31.25 412.35-32.3 412.4-33.35L412.4-33.35Q412.45-34.5 412.5-35.8L412.5-35.8Q413.8-35.7 415.1-35.65 416.4-35.6 417.7-35.6L417.7-35.6Q420.25-35.6 422.62-35.73 425-35.85 427.02-36.02 429.05-36.2 431-36.45L431-36.45 430.45-33.75Q430.2-32.6 429.97-31.4 429.75-30.2 429.55-29.35L429.55-29.35Q428.45-29.05 427.32-28.93 426.2-28.8 425.1-28.6L425.1-28.6Q424.75-26.9 424.35-24.83 423.95-22.75 423.57-20.53 423.2-18.3 422.85-16 422.5-13.7 422.15-11.6L422.15-11.6Q421.35-6.65 420.65-1.35L420.65-1.35ZM433.34-1.5L425.64 0.1Q427.04-6.9 428.34-13.55L428.34-13.55Q428.84-16.4 429.39-19.48 429.94-22.55 430.42-25.55 430.89-28.55 431.32-31.38 431.74-34.2 431.99-36.5L431.99-36.5Q433.14-36.45 434.12-36.38 435.09-36.3 436.04-36.25 436.99-36.2 437.97-36.18 438.94-36.15 440.09-36.15L440.09-36.15Q439.24-32.6 438.42-29.05 437.59-25.5 436.89-21.9L436.89-21.9 441.84-22.45Q442.54-26 443.09-29.33 443.64-32.65 444.54-36.2L444.54-36.2Q445.69-36.4 447.09-36.52 448.49-36.65 449.69-36.75 450.89-36.85 451.72-36.93 452.54-37 452.54-37L452.54-37Q451.84-34.75 451.22-32.08 450.59-29.4 449.99-26.53 449.39-23.65 448.84-20.7 448.29-17.75 447.84-15.1L447.84-15.1Q446.74-8.75 445.79-2.1L445.79-2.1 437.99-1.2Q438.64-4.2 439.14-7.05L439.14-7.05Q439.64-9.45 440.17-12.05 440.69-14.65 440.99-16.5L440.99-16.5 436.14-16.05Q435.79-14.15 435.32-11.65 434.84-9.15 434.44-6.9L434.44-6.9Q433.89-4.2 433.34-1.5L433.34-1.5ZM463.84-2.45L447.69 0.05 454.24-35.5 470.04-36.85Q469.69-35.75 469.44-34.6L469.44-34.6Q469.19-33.65 468.97-32.63 468.74-31.6 468.59-30.8L468.59-30.8Q468.09-30.75 467.17-30.73 466.24-30.7 465.19-30.68 464.14-30.65 463.07-30.65 461.99-30.65 461.19-30.65L461.19-30.65 459.44-21.7Q460.99-21.8 462.34-21.85L462.34-21.85Q463.44-21.9 464.59-21.9 465.74-21.9 466.29-21.95L466.29-21.95Q466.09-20.55 465.92-19.2 465.74-17.85 465.49-16.45L465.49-16.45Q464.99-16.4 463.87-16.38 462.74-16.35 461.59-16.3L461.59-16.3Q460.29-16.25 458.74-16.2L458.74-16.2 457.04-7 464.34-8.15 463.84-2.45ZM482.39-2.05L474.29 0.05Q475.64-6.6 476.89-12.95L476.89-12.95Q477.34-15.65 477.89-18.57 478.44-21.5 478.91-24.38 479.39-27.25 479.81-29.93 480.24-32.6 480.49-34.8L480.49-34.8Q483.34-35.7 486.64-36.13 489.94-36.55 493.19-36.55L493.19-36.55Q495.14-36.55 496.41-36.1 497.69-35.65 498.41-34.83 499.14-34 499.44-32.9 499.74-31.8 499.74-30.45L499.74-30.45Q499.74-28.45 499.04-26.53 498.34-24.6 497.16-22.88 495.99-21.15 494.46-19.73 492.94-18.3 491.19-17.4L491.19-17.4Q492.09-15.4 493.11-13.03 494.14-10.65 495.04-8.5L495.04-8.5Q496.04-6 497.09-3.5L497.09-3.5 489.34-0.8Q488.34-4 487.54-6.8L487.54-6.8Q487.19-7.95 486.84-9.18 486.49-10.4 486.19-11.5 485.89-12.6 485.69-13.48 485.49-14.35 485.44-14.9L485.44-14.9 484.79-14.7Q484.49-13.1 484.06-10.95 483.64-8.8 483.29-6.8L483.29-6.8Q482.84-4.45 482.39-2.05L482.39-2.05ZM487.64-29.6L486.04-21.65Q486.99-21.75 488.36-22.45 489.74-23.15 490.99-24.13 492.24-25.1 493.14-26.15 494.04-27.2 494.04-28L494.04-28Q494.04-28.55 493.69-28.88 493.34-29.2 492.71-29.38 492.09-29.55 491.34-29.6 490.59-29.65 489.79-29.65L489.79-29.65Q489.24-29.65 488.66-29.63 488.09-29.6 487.64-29.6L487.64-29.6ZM512.83-2.45L496.68 0.05 503.23-35.5 519.03-36.85Q518.68-35.75 518.43-34.6L518.43-34.6Q518.18-33.65 517.96-32.63 517.73-31.6 517.58-30.8L517.58-30.8Q517.08-30.75 516.16-30.73 515.23-30.7 514.18-30.68 513.13-30.65 512.06-30.65 510.98-30.65 510.18-30.65L510.18-30.65 508.43-21.7Q509.98-21.8 511.33-21.85L511.33-21.85Q512.43-21.9 513.58-21.9 514.73-21.9 515.28-21.95L515.28-21.95Q515.08-20.55 514.91-19.2 514.73-17.85 514.48-16.45L514.48-16.45Q513.98-16.4 512.86-16.38 511.73-16.35 510.58-16.3L510.58-16.3Q509.28-16.25 507.73-16.2L507.73-16.2 506.03-7 513.33-8.15 512.83-2.45ZM535.48-12.35Q535.48-9.55 534.41-7.28 533.33-5 531.5-3.35 529.68-1.7 527.21-0.8 524.73 0.1 521.88 0.1L521.88 0.1Q519.88 0.1 517.88-0.98 515.88-2.05 514.03-4.4L514.03-4.4 517.73-11.65Q518.08-11 518.78-10.33 519.48-9.65 520.36-9.15 521.23-8.65 522.11-8.33 522.98-8 523.68-8L523.68-8Q524.28-8 524.93-8.2 525.58-8.4 526.13-8.8 526.68-9.2 527-9.73 527.33-10.25 527.33-10.95L527.33-10.95Q527.33-12.15 526.56-13.18 525.78-14.2 524.63-15.13 523.48-16.05 522.13-17 520.78-17.95 519.66-19 518.53-20.05 517.73-21.35 516.93-22.65 516.93-24.25L516.93-24.25Q516.93-26.85 518.48-29.1 520.03-31.35 522.36-32.98 524.68-34.6 527.43-35.55 530.18-36.5 532.63-36.5L532.63-36.5Q533.98-36.5 535.18-36.18 536.38-35.85 537.25-35.13 538.13-34.4 538.66-33.3 539.18-32.2 539.18-30.55L539.18-30.55Q539.18-29.85 539.06-29.15 538.93-28.45 538.83-27.65L538.83-27.65 531.58-25.55Q531.68-25.95 531.75-26.35 531.83-26.75 531.83-27.15L531.83-27.15Q531.83-28.65 531.31-29.33 530.78-30 529.93-30L529.93-30Q529.53-30 528.96-29.7 528.38-29.4 527.81-28.93 527.23-28.45 526.83-27.8 526.43-27.15 526.43-26.4L526.43-26.4Q526.43-25.2 527.11-24.4 527.78-23.6 528.78-22.9 529.78-22.2 530.96-21.48 532.13-20.75 533.13-19.6 534.13-18.45 534.81-16.73 535.48-15 535.48-12.35L535.48-12.35ZM548.33-1.35L539.33 0.05Q540.48-5.45 541.53-10.8L541.53-10.8Q541.98-13.05 542.43-15.5 542.88-17.95 543.3-20.33 543.73-22.7 544.05-24.93 544.38-27.15 544.63-29L544.63-29Q543.48-29.15 542.3-29.1 541.13-29.05 539.98-29.4L539.98-29.4Q540.03-30.2 540.03-31.25 540.03-32.3 540.08-33.35L540.08-33.35Q540.13-34.5 540.18-35.8L540.18-35.8Q541.48-35.7 542.78-35.65 544.08-35.6 545.38-35.6L545.38-35.6Q547.93-35.6 550.3-35.73 552.68-35.85 554.7-36.02 556.73-36.2 558.68-36.45L558.68-36.45 558.13-33.75Q557.88-32.6 557.65-31.4 557.43-30.2 557.23-29.35L557.23-29.35Q556.13-29.05 555-28.93 553.88-28.8 552.78-28.6L552.78-28.6Q552.43-26.9 552.03-24.83 551.63-22.75 551.25-20.53 550.88-18.3 550.53-16 550.18-13.7 549.83-11.6L549.83-11.6Q549.03-6.65 548.33-1.35L548.33-1.35ZM563.02-11.85Q561.57-11.85 560.13-11.75 558.67-11.65 557.22-11.55L557.22-11.55Q558.77-17.7 560.25-23.8 561.72-29.9 563.32-36.05L563.32-36.05Q564.27-36.2 565.5-36.35 566.72-36.5 567.97-36.7 569.22-36.9 570.4-37.05 571.57-37.2 572.38-37.35L572.38-37.35Q569.67-31.05 567.45-24.68 565.22-18.3 563.02-11.85L563.02-11.85ZM563.52-4Q563.52-3.05 563.1-2.1 562.67-1.15 561.88-0.43 561.07 0.3 559.88 0.73 558.67 1.15 557.13 1.15L557.13 1.15Q556.07 1.15 555.22 0.75 554.38 0.35 553.85-0.33 553.32-1 553.02-1.85 552.72-2.7 552.72-3.55L552.72-3.55Q552.72-4.5 553.02-5.38 553.32-6.25 553.95-6.93 554.57-7.6 555.5-8.05 556.42-8.5 557.72-8.5L557.72-8.5Q560.63-8.5 562.07-7.13 563.52-5.75 563.52-4L563.52-4Z" opacity="1" transform="matrix(1,0,0,1,0,0)" fill="#f98e54" class="undefined-text-1" data-fill-palette-color="secondary" id="text-1"></path></svg></g></svg></g></svg></g></svg></g><g><svg viewBox="0 0 209.19347613789503 237.7765860158708" height="237.7765860158708" width="209.19347613789503"><g><svg xmlns="http://www.w3.org/2000/svg" data-name="Layer 1" viewBox="12 0 104 128" x="8" y="0" height="237.7765860158708" width="193.19347613789503" class="icon-icon-0" data-fill-palette-color="accent" id="icon-0"><path d="M112 8h-6V4a4 4 0 0 0-4-4H16a4 4 0 0 0-4 4V124a4 4 0 0 0 4 4h86a4 4 0 0 0 4-4v-4h6a4 4 0 0 0 4-4V12A4 4 0 0 0 112 8ZM20 101H16V95h4Zm0-10H16V85h4Zm0-10H16V75h4Zm0-10H16V65h4Zm0-10H16V55h4Zm0-10H16V45h4Zm0-10H16V35h4Zm0-10H16V25h4Zm4 85V105h4a2 2 0 0 0 0-4H24V95h4a2 2 0 0 0 0-4H24V85h4a2 2 0 0 0 0-4H24V75h4a2 2 0 0 0 0-4H24V65h4a2 2 0 0 0 0-4H24V55h4a2 2 0 0 0 0-4H24V45h4a2 2 0 0 0 0-4H24V35h4a2 2 0 0 0 0-4H24V25h4a2 2 0 0 0 0-4H24V12h88V116Z" fill="#f25f39" data-fill-palette-color="accent"></path><path d="M106 97H36a2 2 0 0 0 0 4h70a2 2 0 0 0 0-4Z" fill="#f25f39" data-fill-palette-color="accent"></path><path d="M106 27H36a2 2 0 0 0 0 4h70a2 2 0 0 0 0-4Z" fill="#f25f39" data-fill-palette-color="accent"></path><path d="M34 39a2 2 0 0 0 2 2H49.56a29.54 29.54 0 0 1 6.58-4H36A2 2 0 0 0 34 39Z" fill="#f25f39" data-fill-palette-color="accent"></path><path d="M106 37H79.87a29.54 29.54 0 0 1 6.58 4H106a2 2 0 0 0 0-4Z" fill="#f25f39" data-fill-palette-color="accent"></path><path d="M36 51h5.53a29.52 29.52 0 0 1 2.39-4H36a2 2 0 0 0 0 4Z" fill="#f25f39" data-fill-palette-color="accent"></path><path d="M106 47H92.09a29.52 29.52 0 0 1 2.39 4H106a2 2 0 0 0 0-4Z" fill="#f25f39" data-fill-palette-color="accent"></path><path d="M106 57H96.65a29.3 29.3 0 0 1 0.69 4H106a2 2 0 0 0 0-4Z" fill="#f25f39" data-fill-palette-color="accent"></path><path d="M36 61h2.65a29.3 29.3 0 0 1 0.69-4H36a2 2 0 0 0 0 4Z" fill="#f25f39" data-fill-palette-color="accent"></path><path d="M106 67H97.35a29.3 29.3 0 0 1-0.69 4H106a2 2 0 0 0 0-4Z" fill="#f25f39" data-fill-palette-color="accent"></path><path d="M36 71h3.35a29.3 29.3 0 0 1-0.69-4H36a2 2 0 0 0 0 4Z" fill="#f25f39" data-fill-palette-color="accent"></path><path d="M106 77H94.47a29.52 29.52 0 0 1-2.39 4H106a2 2 0 0 0 0-4Z" fill="#f25f39" data-fill-palette-color="accent"></path><path d="M36 81h7.91a29.52 29.52 0 0 1-2.39-4H36a2 2 0 0 0 0 4Z" fill="#f25f39" data-fill-palette-color="accent"></path><path d="M36 91H56.13a29.54 29.54 0 0 1-6.58-4H36a2 2 0 0 0 0 4Z" fill="#f25f39" data-fill-palette-color="accent"></path><path d="M106 87H86.44a29.54 29.54 0 0 1-6.58 4H106a2 2 0 0 0 0-4Z" fill="#f25f39" data-fill-palette-color="accent"></path><path d="M68 89.5A25.5 25.5 0 1 0 42.5 64 25.53 25.53 0 0 0 68 89.5ZM52.74 64.15a2 2 0 0 1 2.83 0l6.77 6.77L80.43 52.84a2 2 0 1 1 2.83 2.82l-19.5 19.5a2 2 0 0 1-2.83 0L52.74 67A2 2 0 0 1 52.74 64.15Z" fill="#f25f39" data-fill-palette-color="accent"></path></svg></g></svg></g></svg></g><defs></defs></svg><rect width="395.52" height="151.31071303467803" fill="none" stroke="none" visibility="hidden"></rect></g></svg></g></svg>